# xmcd
#
# Track frame offsets:
#	182
#	14665
#	28370
#	43635
#	56612
#	71175
#	85615
#	101472
#	117195
#	130190
#	144270
#	157965
#	169775
#	182450
#	195707
#	208862
#
# Disc length: 2989 seconds
#
# Revision: 2
# Processed by: cddbd v1.4PL0 Copyright (c) Steve Scherf et al.
# Submitted via: CDmax 1.9
#
DISCID=dd0bab10
DTITLE=Various Artist - The Very Best Of Jimmy Reed/Roots Of The Blues - Vol.5
DYEAR=1995
DGENRE=Blues
TTITLE0=Bessie Smith - St. Louis Blues
TTITLE1=Blind Lemon Jefferson - Matchbox
TTITLE2=Tommy Johnson - Big Road Blues
TTITLE3=Mississippi John Hurt - Got The Blues Can't Be Satisfied
TTITLE4=Barbecue Bob - Goin' Up The Country
TTITLE5=Charley Patton - A Spoonful Blues
TTITLE6=Willie Walker - Dupree Blues
TTITLE7=Tampa Red - Sugar Mama Blues
TTITLE8=Meade Lux Lewis - Honky Tonk Train Blues
TTITLE9=Johnnie Temple - Lead Pencil Blues
TTITLE10=Robert Johnson - Sweet Home Chicago
TTITLE11=Big Bill Broonzy - Just A Dream
TTITLE12=Sonny Terry - Harmonica Stomp
TTITLE13=Leadbelly - Good Morning Blues
TTITLE14=Big Maceo - County Jail Blues
TTITLE15=Muddy Waters - Country Blues
EXTD=Bonus CD included with The Very Best Of Jimmy Reed Box Set
EXTT0=
EXTT1=
EXTT2=
EXTT3=
EXTT4=
EXTT5=
EXTT6=
EXTT7=
EXTT8=
EXTT9=
EXTT10=
EXTT11=
EXTT12=
EXTT13=
EXTT14=
EXTT15=
PLAYORDER=
